:FULLY-SPECIFIED
:FORCE-ALL-JOINTS-BE-3DOF
:DEGREES
146
root 8.60507 16.2212 -16.4569 6.95416 9.70835 1.78186
lfemur 13.6859 5.85796 -16.5576
ltibia 25.7305 0 0
lfoot 3.91592 3.15832 0
ltoes -13.8737 0 0
rfemur -38.6838 4.26783 16.0636
rtibia 32.8995 0 0
rfoot -13.6332 -4.86891 0
rtoes -14.3852 0 0
lowerback -6.54519 -3.60464 -2.89412
upperback -1.53615 -4.64434 3.03584
thorax 2.54478 -2.35457 4.36361
lowerneck -20.1508 -6.21369 -14.0766
upperneck 17.7967 -7.27658 13.0802
head 10.0224 -2.92822 5.90312
lclavicle 2.73565e-14 -8.66404e-15 0
lhumerus -36.3588 -7.70479 91.9021
lradius 23.7589 0 0
lwrist -6.22194 0 0
lhand -5.27822 -20.2996 0
lfingers 7.12502 0 0
lthumb 20.5254 8.62948 0
rclavicle 2.73565e-14 -8.66404e-15 0
rhumerus -47.3971 5.66526 -81.8641
rradius 29.835 0 0
rwrist -16.975 0 0
rhand -29.4157 -25.6602 0
rfingers 7.12502 0 0
rthumb -2.75321 -55.6241 0
147
root 8.57467 16.2357 -16.2934 7.01474 9.7645 1.57373
lfemur 13.0749 6.10756 -16.0477
ltibia 27.2988 0 0
lfoot 4.75979 3.42762 0
ltoes -14.1853 0 0
rfemur -38.3225 3.88485 16.7403
rtibia 33.3727 0 0
rfoot -13.1227 -4.42011 0
rtoes -14.0581 0 0
lowerback -6.43415 -3.55902 -2.69599
upperback -1.5505 -4.60293 3.08794
thorax 2.45322 -2.33025 4.3172
lowerneck -20.1676 -6.252 -14.1251
upperneck 17.6067 -7.32505 13.1997
head 9.97277 -2.9401 5.94236
lclavicle 3.13265e-14 -9.03082e-15 0
lhumerus -36.6756 -6.75918 91.611
lradius 22.9327 0 0
lwrist -6.96031 0 0
lhand -5.03971 -20.1185 0
lfingers 7.12502 0 0
lthumb 20.7548 8.78876 0
rclavicle 3.13265e-14 -9.03082e-15 0
rhumerus -47.3431 5.68343 -81.8353
rradius 29.7544 0 0
rwrist -16.9706 0 0
rhand -29.4149 -25.7859 0
rfingers 7.12502 0 0
rthumb -2.75239 -55.7498 0
148
root 8.54507 16.2501 -16.1314 7.073 9.81229 1.37019
lfemur 12.4343 6.34753 -15.5641
ltibia 28.8333 0 0
lfoot 5.54386 3.69562 0
ltoes -14.4741 0 0
rfemur -37.9505 3.51841 17.4008
rtibia 33.8206 0 0
rfoot -12.6423 -3.98405 0
rtoes -13.7438 0 0
lowerback -6.32519 -3.50959 -2.50251
upperback -1.56462 -4.55582 3.13794
thorax 2.36307 -2.30318 4.2713
lowerneck -20.1757 -6.2894 -14.1734
upperneck 17.4197 -7.37328 13.3177
head 9.92268 -2.95245 5.98122
lclavicle 3.50824e-14 -9.39074e-15 0
lhumerus -36.9926 -5.85938 91.3376
lradius 22.1526 0 0
lwrist -7.63977 0 0
lhand -4.82402 -19.9494 0
lfingers 7.12502 0 0
lthumb 20.9623 8.93787 0
rclavicle 3.50824e-14 -9.39074e-15 0
rhumerus -47.2818 5.70462 -81.8034
rradius 29.6957 0 0
rwrist -16.9728 0 0
rhand -29.418 -25.9067 0
rfingers 7.12502 0 0
rthumb -2.75544 -55.8705 0
149
root 8.51641 16.2643 -15.9711 7.12875 9.85167 1.17229
lfemur 11.7647 6.57636 -15.1104
ltibia 30.3257 0 0
lfoot 6.26113 3.96096 0
ltoes -14.7378 0 0
rfemur -37.5684 3.17146 18.0412
rtibia 34.238 0 0
rfoot -12.1962 -3.56296 0
rtoes -13.4446 0 0
lowerback -6.21891 -3.45627 -2.31469
upperback -1.57852 -4.50279 3.18548
thorax 2.27472 -2.27329 4.22605
lowerneck -20.1745 -6.32576 -14.2215
upperneck 17.2366 -7.42123 13.4336
head 9.87225 -2.96533 6.01954
lclavicle 3.8593e-14 -9.74301e-15 0
lhumerus -37.3097 -5.01221 91.0848
lradius 21.4252 0 0
lwrist -8.2532 0 0
lhand -4.63356 -19.7939 0
lfingers 7.12502 0 0
lthumb 21.1455 9.07556 0
rclavicle 3.8593e-14 -9.74301e-15 0
rhumerus -47.213 5.72861 -81.768
rradius 29.6607 0 0
rwrist -16.9819 0 0
rhand -29.4256 -26.0221 0
rfingers 7.12502 0 0
rthumb -2.76271 -55.9857 0
150
root 8.48882 16.2782 -15.8127 7.18181 9.88259 0.981054
lfemur 11.0671 6.79255 -14.6899
ltibia 31.7674 0 0
lfoot 6.90459 4.22229 0
ltoes -14.9742 0 0
rfemur -37.177 2.84696 18.6575
rtibia 34.6198 0 0
rfoot -11.7885 -3.15909 0
rtoes -13.1623 0 0
lowerback -6.11587 -3.399 -2.13354
upperback -1.59221 -4.44364 3.23023
thorax 2.18855 -2.24048 4.18159
lowerneck -20.1628 -6.36097 -14.2692
upperneck 17.0582 -7.46882 13.547
head 9.82158 -2.97881 6.05717
lclavicle 4.18269e-14 -1.00868e-14 0
lhumerus -37.6269 -4.22445 90.8556
lradius 20.7569 0 0
lwrist -8.79351 0 0
lhand -4.47071 -19.6534 0
lfingers 7.12502 0 0
lthumb 21.3021 9.20058 0
rclavicle 4.18269e-14 -1.00868e-14 0
rhumerus -47.1365 5.75514 -81.7284
rradius 29.651 0 0
rwrist -16.9983 0 0
rhand -29.4379 -26.1314 0
rfingers 7.12502 0 0
rthumb -2.77461 -56.0947 0
151
root 8.46242 16.2918 -15.6564 7.232 9.90498 0.797526
lfemur 10.3421 6.99462 -14.3061
ltibia 33.1499 0 0
lfoot 7.46724 4.47826 0
ltoes -15.181 0 0
rfemur -36.7772 2.54784 19.2458
rtibia 34.9608 0 0
rfoot -11.4233 -2.77467 0
rtoes -12.899 0 0
lowerback -6.01666 -3.33772 -1.96005
upperback -1.60568 -4.37816 3.27182
thorax 2.10496 -2.20467 4.13809
lowerneck -20.14 -6.39488 -14.3164
upperneck 16.8852 -7.516 13.6575
head 9.77078 -2.99293 6.09396
lclavicle 4.47531e-14 -1.04213e-14 0
lhumerus -37.944 -3.50293 90.6529
lradius 20.1542 0 0
lwrist -9.25356 0 0
lhand -4.33787 -19.5293 0
lfingers 7.12502 0 0
lthumb 21.4298 9.31168 0
rclavicle 4.47531e-14 -1.04213e-14 0
rhumerus -47.0521 5.78395 -81.6842
rradius 29.6683 0 0
rwrist -17.0221 0 0
rhand -29.4554 -26.234 0
rfingers 7.12502 0 0
rthumb -2.7915 -56.197 0
152
root 8.43735 16.3049 -15.5024 7.27914 9.9188 0.622742
lfemur 9.59075 7.18107 -13.9622
ltibia 34.4649 0 0
lfoot 7.9421 4.72752 0
ltoes -15.356 0 0
rfemur -36.3696 2.27706 19.8022
rtibia 35.2557 0 0
rfoot -11.1046 -2.41195 0
rtoes -12.6566 0 0
lowerback -5.92185 -3.27234 -1.79522
upperback -1.61894 -4.30613 3.3099
thorax 2.02433 -2.16577 4.09569
lowerneck -20.1049 -6.42737 -14.363
upperneck 16.7184 -7.56272 13.7645
head 9.71993 -3.00775 6.12976
lclavicle 4.73401e-14 -1.07458e-14 0
lhumerus -38.261 -2.85444 90.4796
lradius 19.6238 0 0
lwrist -9.62626 0 0
lhand -4.23743 -19.423 0
lfingers 7.12502 0 0
lthumb 21.5263 9.40761 0
rclavicle 4.73401e-14 -1.07458e-14 0
rhumerus -46.9595 5.8148 -81.6349
rradius 29.7145 0 0
rwrist -17.0538 0 0
rhand -29.4784 -26.3293 0
rfingers 7.12502 0 0
rthumb -2.81376 -56.2918 0
153
root 8.41372 16.3175 -15.3509 7.32305 9.92398 0.457741
lfemur 8.81367 7.35039 -13.6618
ltibia 35.7039 0 0
lfoot 8.32215 4.96872 0
ltoes -15.497 0 0
rfemur -35.9551 2.03757 20.3227
rtibia 35.4995 0 0
rfoot -10.8367 -2.07318 0
rtoes -12.4373 0 0
lowerback -5.83203 -3.2028 -1.64006
upperback -1.63199 -4.22734 3.34413
thorax 1.94703 -2.12369 4.05454
lowerneck -20.0567 -6.45832 -14.4088
upperneck 16.5588 -7.60892 13.8676
head 9.66915 -3.02332 6.16441
lclavicle 4.95567e-14 -1.10594e-14 0
lhumerus -38.5779 -2.28579 90.3387
lradius 19.1721 0 0
lwrist -9.90449 0 0
lhand -4.17178 -19.3361 0
lfingers 7.12502 0 0
lthumb 21.5894 9.48713 0
rclavicle 4.95567e-14 -1.10594e-14 0
rhumerus -46.8586 5.84744 -81.5799
rradius 29.7911 0 0
rwrist -17.0937 0 0
rhand -29.5074 -26.4167 0
rfingers 7.12502 0 0
rthumb -2.84177 -56.3786 0
154
root 8.39168 16.3296 -15.2022 7.36355 9.92047 0.303561
lfemur 8.01173 7.5011 -13.4082
ltibia 36.8583 0 0
lfoot 8.6004 5.2005 0
ltoes -15.6016 0 0
rfemur -35.5343 1.83232 20.8035
rtibia 35.687 0 0
rfoot -10.6235 -1.76059 0
rtoes -12.243 0 0
lowerback -5.74776 -3.12904 -1.49557
upperback -1.64485 -4.14158 3.37415
thorax 1.87345 -2.07834 4.01479
lowerneck -19.9946 -6.48759 -14.4536
upperneck 16.4071 -7.65453 13.9664
head 9.61853 -3.03971 6.19778
lclavicle 5.13718e-14 -1.13614e-14 0
lhumerus -38.8944 -1.80378 90.233
lradius 18.8056 0 0
lwrist -10.0811 0 0
lhand -4.14332 -19.2699 0
lfingers 7.12502 0 0
lthumb 21.6167 9.549 0
rclavicle 5.13718e-14 -1.13614e-14 0
rhumerus -46.7492 5.88162 -81.5187
rradius 29.9 0 0
rwrist -17.1421 0 0
rhand -29.5428 -26.4956 0
rfingers 7.12502 0 0
rthumb -2.8759 -56.4567 0
155
root 8.37134 16.3411 -15.0564 7.40046 9.90821 0.161239
lfemur 7.18573 7.63169 -13.2049
ltibia 37.9197 0 0
lfoot 8.76985 5.42151 0
ltoes -15.6676 0 0
rfemur -35.108 1.66425 21.2405
rtibia 35.813 0 0
rfoot -10.4693 -1.47643 0
rtoes -12.0757 0 0
lowerback -5.66964 -3.05098 -1.36274
upperback -1.65751 -4.04864 3.39962
thorax 1.80399 -2.02965 3.97659
lowerneck -19.9175 -6.51505 -14.4974
upperneck 16.2641 -7.69951 14.0604
head 9.56817 -3.05697 6.2297
lclavicle 5.27539e-14 -1.16509e-14 0
lhumerus -39.2106 -1.41522 90.1657
lradius 18.5308 0 0
lwrist -10.1491 0 0
lhand -4.15444 -19.226 0
lfingers 7.12502 0 0
lthumb 21.6058 9.59195 0
rclavicle 5.27539e-14 -1.16509e-14 0
rhumerus -46.6309 5.9171 -81.4509
rradius 30.0428 0 0
rwrist -17.1992 0 0
rhand -29.5849 -26.5653 0
rfingers 7.12502 0 0
rthumb -2.91654 -56.5255 0
156
root 8.35284 16.3518 -14.9137 7.4336 9.88715 0.0318131
lfemur 6.33647 7.74068 -13.0552
ltibia 38.8796 0 0
lfoot 8.8235 5.6304 0
ltoes -15.6929 0 0
rfemur -34.6771 1.53631 21.6299
rtibia 35.8724 0 0
rfoot -10.3781 -1.22293 0
rtoes -11.9375 0 0
lowerback -5.59824 -2.96855 -1.24259
upperback -1.66997 -3.94832 3.42017
thorax 1.73902 -1.97752 3.9401
lowerneck -19.8246 -6.54058 -14.54
upperneck 16.1306 -7.74378 14.1491
head 9.51817 -3.07516 6.26002
lclavicle 5.36719e-14 -1.19271e-14 0
lhumerus -39.5263 -1.12691 90.1395
lradius 18.3543 0 0
lwrist -10.1012 0 0
lhand -4.20754 -19.2058 0
lfingers 7.12502 0 0
lthumb 21.5546 9.61475 0
rclavicle 5.36719e-14 -1.19271e-14 0
rhumerus -46.5037 5.95361 -81.3759
rradius 30.2213 0 0
rwrist -17.2654 0 0
rhand -29.6341 -26.6252 0
rfingers 7.12502 0 0
rthumb -2.96407 -56.5844 0
157
root 8.33563 16.3624 -14.7741 7.46203 9.85459 -0.0865626
lfemur 5.42995 7.83464 -12.9633
ltibia 39.7905 0 0
lfoot 8.75517 5.835 0
ltoes -15.6664 0 0
rfemur -34.2375 1.44223 21.9844
rtibia 35.8885 0 0
rfoot -10.353 -0.996448 0
rtoes -11.8264 0 0
lowerback -5.52893 -2.87869 -1.13299
upperback -1.68275 -3.83661 3.4361
thorax 1.67488 -1.91991 3.90471
lowerneck -19.7119 -6.56497 -14.5833
upperneck 16.0019 -7.78876 14.2357
head 9.46668 -3.09492 6.28994
lclavicle 5.41512e-14 -1.21957e-14 0
lhumerus -39.8463 -0.933395 90.1521
lradius 18.2767 0 0
lwrist -9.92488 0 0
lhand -4.30855 -19.2064 0
lfingers 7.12502 0 0
lthumb 21.4572 9.62065 0
rclavicle 5.41512e-14 -1.21957e-14 0
rhumerus -46.3616 5.99278 -81.2895
rradius 30.4414 0 0
rwrist -17.3428 0 0
rhand -29.6928 -26.6748 0
rfingers 7.12502 0 0
rthumb -3.02074 -56.6328 0
